<svg width="294" height="251" viewBox="0 0 294 251" fill="none" xmlns="http://www.w3.org/2000/svg">
<mask id="mask0_8706_19968" style="mask-type:luminance" maskUnits="userSpaceOnUse" x="35" y="0" width="224" height="224">
<path d="M259 0H35V224H259V0Z" fill="white"/>
</mask>
<g mask="url(#mask0_8706_19968)">
<g opacity="0.25">
<path d="M242.152 165.044C249.797 165.044 255.995 158.846 255.995 151.2C255.995 143.555 249.797 137.357 242.152 137.357C234.506 137.357 228.309 143.555 228.309 151.2C228.309 158.846 234.506 165.044 242.152 165.044Z" fill="#A1C6FF"/>
<path d="M80.7983 137.357V165.041H68.1535C60.5083 165.041 54.3125 158.846 54.3125 151.203C54.3125 143.56 60.5106 137.357 68.1535 137.357H80.7983Z" fill="#A1C6FF"/>
</g>
<g opacity="0.25">
<path d="M55.4266 92.4671H54.535C53.2448 92.4671 51.9814 92.5925 50.7606 92.8322C41.7782 94.5906 35 102.502 35 112.002C35 117.398 37.1862 122.279 40.721 125.812C44.2557 129.346 49.1389 131.533 54.535 131.533H80.8013V56.8578C76.2294 52.6959 73.3578 46.6972 73.3578 40.0265C73.3578 34.4892 75.3379 29.4089 78.6307 25.4665C82.7994 20.4623 89.0803 17.2815 96.105 17.2815C100.596 17.2815 104.783 18.5829 108.308 20.8297H188.377C191.092 20.8297 193.648 22.0975 195.268 24.2457L217.276 53.4441C217.688 53.4172 218.1 53.4015 218.519 53.4015H239.465C250.253 53.4015 259 44.6543 259 33.8665C259 28.4748 256.814 23.5916 253.279 20.0524C249.744 16.5177 244.861 14.3314 239.465 14.3314H54.535C43.7472 14.3314 35 23.0764 35 33.8642C35 39.2604 37.1862 44.1413 40.721 47.6783C43.055 50.0124 45.9782 51.7573 49.2486 52.6757C49.737 52.8146 50.232 52.9311 50.7382 53.0319C51.9658 53.2738 53.2358 53.3993 54.535 53.3993H55.44C55.9754 53.5045 56.5018 53.6345 57.0214 53.7845C60.312 54.7276 63.2554 56.4927 65.6118 58.8492C69.216 62.4578 71.4448 67.4329 71.4448 72.9321C71.4448 78.4313 69.216 83.413 65.6118 87.0194C62.8835 89.7477 59.3622 91.6876 55.4288 92.4671H55.4266Z" fill="#A1C6FF"/>
<path d="M239.464 92.4672H225.301V134.857C228.414 132.758 232.166 131.533 236.203 131.533H239.464C250.252 131.533 258.999 122.788 258.999 112C258.999 106.608 256.813 101.721 253.278 98.186C249.744 94.6512 244.86 92.465 239.464 92.465V92.4672Z" fill="#A1C6FF"/>
<path d="M239.463 170.603H236.202C232.163 170.603 228.413 169.378 225.3 167.281V189.858C225.3 194.54 221.454 198.334 216.712 198.334H89.3855C84.6435 198.334 80.7974 194.54 80.7974 189.858V170.603H54.5311C43.7433 170.603 34.9961 179.348 34.9961 190.136C34.9961 195.532 37.1823 200.413 40.7171 203.95C44.2518 207.485 49.135 209.671 54.5311 209.671H239.461C250.249 209.671 258.996 200.924 258.996 190.136C258.996 184.744 256.81 179.859 253.275 176.328C249.74 172.791 244.857 170.605 239.461 170.605L239.463 170.603Z" fill="#A1C6FF"/>
</g>
<path d="M212.195 199.004H207.5C207.128 199.004 206.828 198.704 206.828 198.332C206.828 197.96 207.128 197.66 207.5 197.66H212.195C212.567 197.66 212.867 197.96 212.867 198.332C212.867 198.704 212.567 199.004 212.195 199.004ZM202.803 199.004H198.107C197.736 199.004 197.435 198.704 197.435 198.332C197.435 197.96 197.736 197.66 198.107 197.66H202.803C203.174 197.66 203.475 197.96 203.475 198.332C203.475 198.704 203.174 199.004 202.803 199.004ZM193.41 199.004H188.715C188.343 199.004 188.043 198.704 188.043 198.332C188.043 197.96 188.343 197.66 188.715 197.66H193.41C193.782 197.66 194.082 197.96 194.082 198.332C194.082 198.704 193.782 199.004 193.41 199.004ZM184.018 199.004H179.323C178.951 199.004 178.651 198.704 178.651 198.332C178.651 197.96 178.951 197.66 179.323 197.66H184.018C184.39 197.66 184.69 197.96 184.69 198.332C184.69 198.704 184.39 199.004 184.018 199.004ZM174.626 199.004H169.928C169.556 199.004 169.256 198.704 169.256 198.332C169.256 197.96 169.556 197.66 169.928 197.66H174.626C174.997 197.66 175.298 197.96 175.298 198.332C175.298 198.704 174.997 199.004 174.626 199.004ZM165.233 199.004H160.538C160.166 199.004 159.866 198.704 159.866 198.332C159.866 197.96 160.166 197.66 160.538 197.66H165.233C165.605 197.66 165.905 197.96 165.905 198.332C165.905 198.704 165.605 199.004 165.233 199.004ZM155.841 199.004H151.146C150.774 199.004 150.474 198.704 150.474 198.332C150.474 197.96 150.774 197.66 151.146 197.66H155.841C156.213 197.66 156.513 197.96 156.513 198.332C156.513 198.704 156.213 199.004 155.841 199.004ZM146.449 199.004H141.751C141.379 199.004 141.079 198.704 141.079 198.332C141.079 197.96 141.379 197.66 141.751 197.66H146.449C146.82 197.66 147.121 197.96 147.121 198.332C147.121 198.704 146.82 199.004 146.449 199.004ZM137.056 199.004H132.359C131.987 199.004 131.687 198.704 131.687 198.332C131.687 197.96 131.987 197.66 132.359 197.66H137.056C137.428 197.66 137.728 197.96 137.728 198.332C137.728 198.704 137.428 199.004 137.056 199.004ZM127.664 199.004H122.967C122.595 199.004 122.295 198.704 122.295 198.332C122.295 197.96 122.595 197.66 122.967 197.66H127.664C128.036 197.66 128.336 197.96 128.336 198.332C128.336 198.704 128.036 199.004 127.664 199.004ZM118.272 199.004H113.577C113.205 199.004 112.905 198.704 112.905 198.332C112.905 197.96 113.205 197.66 113.577 197.66H118.272C118.643 197.66 118.944 197.96 118.944 198.332C118.944 198.704 118.643 199.004 118.272 199.004ZM108.879 199.004H104.184C103.812 199.004 103.512 198.704 103.512 198.332C103.512 197.96 103.812 197.66 104.184 197.66H108.879C109.251 197.66 109.551 197.96 109.551 198.332C109.551 198.704 109.251 199.004 108.879 199.004ZM99.487 199.004H94.792C94.4201 199.004 94.12 198.704 94.12 198.332C94.12 197.96 94.4201 197.66 94.792 197.66H99.487C99.8588 197.66 100.159 197.96 100.159 198.332C100.159 198.704 99.8588 199.004 99.487 199.004ZM90.0947 199.004H89.3891C87.9308 199.004 86.5331 198.679 85.2384 198.036C84.9068 197.87 84.7702 197.467 84.9337 197.136C85.0995 196.804 85.5027 196.667 85.8342 196.833C86.943 197.382 88.1369 197.662 89.3868 197.662H90.0924C90.4643 197.662 90.7644 197.962 90.7644 198.334C90.7644 198.706 90.4643 199.006 90.0924 199.006L90.0947 199.004ZM216.892 199.004C216.527 199.004 216.227 198.713 216.22 198.345C216.213 197.973 216.507 197.666 216.879 197.66C218.337 197.631 219.753 197.207 220.976 196.437C221.289 196.24 221.704 196.334 221.903 196.647C222.102 196.961 222.006 197.375 221.692 197.575C220.263 198.477 218.606 198.972 216.903 199.006C216.899 199.006 216.894 199.006 216.89 199.006L216.892 199.004ZM82.0934 195.003C81.8694 195.003 81.6521 194.891 81.5244 194.689C80.615 193.249 80.1334 191.587 80.1289 189.882C80.1289 189.511 80.4268 189.21 80.7987 189.208C81.1683 189.208 81.4707 189.508 81.4707 189.878C81.4752 191.329 81.8851 192.745 82.6601 193.97C82.8572 194.284 82.7632 194.698 82.4496 194.898C82.3376 194.967 82.2143 195.001 82.0911 195.001L82.0934 195.003ZM224.441 194.235C224.34 194.235 224.239 194.212 224.145 194.165C223.811 194.002 223.675 193.599 223.841 193.265C224.367 192.199 224.634 191.052 224.634 189.858V189C224.634 188.628 224.934 188.328 225.306 188.328C225.677 188.328 225.978 188.628 225.978 189V189.858C225.978 191.26 225.664 192.606 225.046 193.861C224.929 194.098 224.69 194.235 224.443 194.235H224.441ZM80.8009 185.859C80.4291 185.859 80.1289 185.559 80.1289 185.187V180.49C80.1289 180.118 80.4291 179.818 80.8009 179.818C81.1727 179.818 81.4729 180.118 81.4729 180.49V185.187C81.4729 185.559 81.1727 185.859 80.8009 185.859ZM225.303 184.977C224.931 184.977 224.631 184.677 224.631 184.305V179.61C224.631 179.238 224.931 178.938 225.303 178.938C225.675 178.938 225.975 179.238 225.975 179.61V184.305C225.975 184.677 225.675 184.977 225.303 184.977ZM80.8009 176.467C80.4291 176.467 80.1289 176.167 80.1289 175.795V171.1C80.1289 170.728 80.4291 170.428 80.8009 170.428C81.1727 170.428 81.4729 170.728 81.4729 171.1V175.795C81.4729 176.167 81.1727 176.467 80.8009 176.467ZM225.303 175.585C224.931 175.585 224.631 175.284 224.631 174.913V170.217C224.631 169.846 224.931 169.546 225.303 169.546C225.675 169.546 225.975 169.846 225.975 170.217V174.913C225.975 175.284 225.675 175.585 225.303 175.585ZM80.8009 167.075C80.4291 167.075 80.1289 166.775 80.1289 166.403V161.708C80.1289 161.336 80.4291 161.036 80.8009 161.036C81.1727 161.036 81.4729 161.336 81.4729 161.708V166.403C81.4729 166.775 81.1727 167.075 80.8009 167.075ZM225.303 166.192C224.931 166.192 224.631 165.892 224.631 165.52V160.825C224.631 160.453 224.931 160.153 225.303 160.153C225.675 160.153 225.975 160.453 225.975 160.825V165.52C225.975 165.892 225.675 166.192 225.303 166.192ZM80.8009 157.682C80.4291 157.682 80.1289 157.382 80.1289 157.01V152.315C80.1289 151.944 80.4291 151.643 80.8009 151.643C81.1727 151.643 81.4729 151.944 81.4729 152.315V157.01C81.4729 157.382 81.1727 157.682 80.8009 157.682ZM225.303 156.8C224.931 156.8 224.631 156.5 224.631 156.128V151.433C224.631 151.061 224.931 150.761 225.303 150.761C225.675 150.761 225.975 151.061 225.975 151.433V156.128C225.975 156.5 225.675 156.8 225.303 156.8ZM80.8009 148.29C80.4291 148.29 80.1289 147.99 80.1289 147.618V142.923C80.1289 142.551 80.4291 142.251 80.8009 142.251C81.1727 142.251 81.4729 142.551 81.4729 142.923V147.618C81.4729 147.99 81.1727 148.29 80.8009 148.29ZM225.303 147.408C224.931 147.408 224.631 147.107 224.631 146.736V142.041C224.631 141.669 224.931 141.369 225.303 141.369C225.675 141.369 225.975 141.669 225.975 142.041V146.736C225.975 147.107 225.675 147.408 225.303 147.408ZM80.8009 138.898C80.4291 138.898 80.1289 138.598 80.1289 138.226V133.531C80.1289 133.159 80.4291 132.859 80.8009 132.859C81.1727 132.859 81.4729 133.159 81.4729 133.531V138.226C81.4729 138.598 81.1727 138.898 80.8009 138.898ZM225.303 138.015C224.931 138.015 224.631 137.715 224.631 137.343V132.646C224.631 132.274 224.931 131.974 225.303 131.974C225.675 131.974 225.975 132.274 225.975 132.646V137.343C225.975 137.715 225.675 138.015 225.303 138.015ZM80.8009 129.506C80.4291 129.506 80.1289 129.205 80.1289 128.833V124.138C80.1289 123.767 80.4291 123.466 80.8009 123.466C81.1727 123.466 81.4729 123.767 81.4729 124.138V128.833C81.4729 129.205 81.1727 129.506 80.8009 129.506ZM225.303 128.623C224.931 128.623 224.631 128.323 224.631 127.951V123.256C224.631 122.884 224.931 122.584 225.303 122.584C225.675 122.584 225.975 122.884 225.975 123.256V127.951C225.975 128.323 225.675 128.623 225.303 128.623ZM80.8009 120.113C80.4291 120.113 80.1289 119.813 80.1289 119.441V114.744C80.1289 114.372 80.4291 114.072 80.8009 114.072C81.1727 114.072 81.4729 114.372 81.4729 114.744V119.441C81.4729 119.813 81.1727 120.113 80.8009 120.113ZM225.303 119.231C224.931 119.231 224.631 118.93 224.631 118.559V113.864C224.631 113.492 224.931 113.192 225.303 113.192C225.675 113.192 225.975 113.492 225.975 113.864V118.559C225.975 118.93 225.675 119.231 225.303 119.231ZM80.8009 110.721C80.4291 110.721 80.1289 110.421 80.1289 110.049V105.354C80.1289 104.982 80.4291 104.682 80.8009 104.682C81.1727 104.682 81.4729 104.982 81.4729 105.354V110.049C81.4729 110.421 81.1727 110.721 80.8009 110.721ZM225.303 109.838C224.931 109.838 224.631 109.538 224.631 109.166V104.469C224.631 104.097 224.931 103.797 225.303 103.797C225.675 103.797 225.975 104.097 225.975 104.469V109.166C225.975 109.538 225.675 109.838 225.303 109.838ZM80.8009 101.329C80.4291 101.329 80.1289 101.028 80.1289 100.657V95.9593C80.1289 95.5874 80.4291 95.2873 80.8009 95.2873C81.1727 95.2873 81.4729 95.5874 81.4729 95.9593V100.657C81.4729 101.028 81.1727 101.329 80.8009 101.329ZM225.303 100.446C224.931 100.446 224.631 100.146 224.631 99.774V95.0767C224.631 94.7049 224.931 94.4047 225.303 94.4047C225.675 94.4047 225.975 94.7049 225.975 95.0767V99.774C225.975 100.146 225.675 100.446 225.303 100.446ZM80.8009 91.9362C80.4291 91.9362 80.1289 91.6361 80.1289 91.2642V86.5669C80.1289 86.1951 80.4291 85.8949 80.8009 85.8949C81.1727 85.8949 81.4729 86.1951 81.4729 86.5669V91.2642C81.4729 91.6361 81.1727 91.9362 80.8009 91.9362ZM225.303 91.0536C224.931 91.0536 224.631 90.7535 224.631 90.3817V85.6866C224.631 85.3148 224.931 85.0146 225.303 85.0146C225.675 85.0146 225.975 85.3148 225.975 85.6866V90.3817C225.975 90.7535 225.675 91.0536 225.303 91.0536ZM80.8009 82.5439C80.4291 82.5439 80.1289 82.2437 80.1289 81.8719V77.1746C80.1289 76.8028 80.4291 76.5026 80.8009 76.5026C81.1727 76.5026 81.4729 76.8028 81.4729 77.1746V81.8719C81.4729 82.2437 81.1727 82.5439 80.8009 82.5439ZM225.303 81.6613C224.931 81.6613 224.631 81.3612 224.631 80.9893V76.2943C224.631 75.9225 224.931 75.6223 225.303 75.6223C225.675 75.6223 225.975 75.9225 225.975 76.2943V80.9893C225.975 81.3612 225.675 81.6613 225.303 81.6613ZM80.8009 73.1516C80.4291 73.1516 80.1289 72.8514 80.1289 72.4796V67.7845C80.1289 67.4127 80.4291 67.1125 80.8009 67.1125C81.1727 67.1125 81.4729 67.4127 81.4729 67.7845V72.4796C81.4729 72.8514 81.1727 73.1516 80.8009 73.1516ZM225.303 72.269C224.931 72.269 224.631 71.9689 224.631 71.597V66.8706C224.631 66.4988 224.931 66.1986 225.303 66.1986C225.675 66.1986 225.975 66.4988 225.975 66.8706V71.597C225.975 71.9689 225.675 72.269 225.303 72.269ZM80.8009 63.7593C80.4291 63.7593 80.1289 63.4591 80.1289 63.0873V58.3922C80.1289 58.0204 80.4291 57.7202 80.8009 57.7202C81.1727 57.7202 81.4729 58.0204 81.4729 58.3922V63.0873C81.4729 63.4591 81.1727 63.7593 80.8009 63.7593ZM224.006 63.0917C223.782 63.0917 223.565 62.9797 223.437 62.7781C223.323 62.5967 223.198 62.4175 223.07 62.245L220.667 59.0575C220.443 58.7618 220.503 58.3407 220.799 58.1167C221.094 57.8927 221.515 57.9532 221.739 58.2489L224.143 61.4364C224.295 61.638 224.441 61.8485 224.575 62.0613C224.772 62.3749 224.678 62.7893 224.365 62.9887C224.253 63.0581 224.13 63.0917 224.006 63.0917ZM218.377 55.5743C218.173 55.5743 217.972 55.4825 217.84 55.3077L215.013 51.558C214.789 51.2623 214.849 50.8412 215.145 50.6172C215.441 50.3932 215.862 50.4537 216.086 50.7493L218.913 54.4991C219.137 54.7948 219.076 55.2159 218.78 55.4399C218.659 55.5317 218.518 55.5743 218.377 55.5743ZM80.8009 54.3669C80.4291 54.3669 80.1289 54.0668 80.1289 53.6949V48.9977C80.1289 48.6258 80.4291 48.3256 80.8009 48.3256C81.1727 48.3256 81.4729 48.6258 81.4729 48.9977V53.6949C81.4729 54.0668 81.1727 54.3669 80.8009 54.3669ZM212.723 48.0748C212.52 48.0748 212.318 47.9829 212.186 47.8082L209.359 44.0585C209.135 43.7628 209.195 43.3417 209.491 43.1176C209.787 42.8937 210.208 42.9541 210.432 43.2498L213.259 46.9996C213.483 47.2953 213.422 47.7164 213.127 47.9404C213.006 48.0322 212.865 48.0748 212.723 48.0748ZM80.8009 44.9746C80.4291 44.9746 80.1289 44.6745 80.1289 44.3026V39.6053C80.1289 39.2335 80.4291 38.9333 80.8009 38.9333C81.1727 38.9333 81.4729 39.2335 81.4729 39.6053V44.3026C81.4729 44.6745 81.1727 44.9746 80.8009 44.9746ZM207.07 40.573C206.866 40.573 206.664 40.4812 206.532 40.3065L203.705 36.5567C203.481 36.261 203.542 35.8399 203.837 35.6159C204.133 35.3919 204.554 35.4524 204.778 35.7481L207.605 39.4978C207.829 39.7935 207.769 40.2146 207.473 40.4386C207.352 40.5305 207.211 40.573 207.07 40.573ZM80.8009 35.5823C80.4291 35.5823 80.1289 35.2821 80.1289 34.9103V30.2153C80.1289 29.8434 80.4291 29.5433 80.8009 29.5433C81.1727 29.5433 81.4729 29.8434 81.4729 30.2153V34.9103C81.4729 35.2821 81.1727 35.5823 80.8009 35.5823ZM201.416 33.0735C201.212 33.0735 201.011 32.9817 200.878 32.8069L198.051 29.0572C197.827 28.7615 197.888 28.3404 198.184 28.1164C198.479 27.8924 198.9 27.9529 199.124 28.2485L201.951 31.9983C202.175 32.294 202.115 32.7151 201.819 32.9391C201.698 33.0309 201.557 33.0735 201.416 33.0735ZM81.6387 26.3177C81.5401 26.3177 81.4393 26.2953 81.3452 26.2505C81.0115 26.0892 80.8726 25.686 81.0339 25.3522C81.7731 23.829 82.9244 22.5388 84.3625 21.6204C84.6761 21.421 85.0905 21.5129 85.2899 21.8242C85.4892 22.1378 85.3974 22.5522 85.086 22.7516C83.8563 23.5378 82.8729 24.6399 82.2435 25.9391C82.127 26.1788 81.8873 26.3177 81.6387 26.3177ZM195.762 25.574C195.558 25.574 195.357 25.4821 195.225 25.3074L194.73 24.6511C194.017 23.7058 193.079 22.9196 192.017 22.3775C191.685 22.2095 191.555 21.8041 191.723 21.4725C191.891 21.141 192.297 21.0111 192.628 21.1791C193.869 21.813 194.969 22.7337 195.803 23.8425L196.298 24.4988C196.522 24.7945 196.461 25.2156 196.165 25.4396C196.044 25.5314 195.903 25.574 195.762 25.574ZM89.1584 21.5039C88.7955 21.5039 88.4953 21.2149 88.4864 20.8498C88.4774 20.478 88.7708 20.1711 89.1404 20.1599C89.2233 20.1599 89.3062 20.1577 89.3868 20.1577H93.8534C94.2252 20.1577 94.5254 20.4578 94.5254 20.8297C94.5254 21.2015 94.2252 21.5017 93.8534 21.5017H89.3868C89.3151 21.5017 89.2457 21.5017 89.174 21.5039C89.1673 21.5039 89.1628 21.5039 89.1561 21.5039H89.1584ZM187.779 21.5017H183.082C182.71 21.5017 182.41 21.2015 182.41 20.8297C182.41 20.4578 182.71 20.1577 183.082 20.1577H187.779C188.151 20.1577 188.451 20.4578 188.451 20.8297C188.451 21.2015 188.151 21.5017 187.779 21.5017ZM178.387 21.5017H173.691C173.32 21.5017 173.019 21.2015 173.019 20.8297C173.019 20.4578 173.32 20.1577 173.691 20.1577H178.387C178.758 20.1577 179.059 20.4578 179.059 20.8297C179.059 21.2015 178.758 21.5017 178.387 21.5017ZM168.994 21.5017H164.299C163.927 21.5017 163.627 21.2015 163.627 20.8297C163.627 20.4578 163.927 20.1577 164.299 20.1577H168.994C169.366 20.1577 169.666 20.4578 169.666 20.8297C169.666 21.2015 169.366 21.5017 168.994 21.5017ZM159.602 21.5017H154.907C154.535 21.5017 154.235 21.2015 154.235 20.8297C154.235 20.4578 154.535 20.1577 154.907 20.1577H159.602C159.974 20.1577 160.274 20.4578 160.274 20.8297C160.274 21.2015 159.974 21.5017 159.602 21.5017ZM150.21 21.5017H145.515C145.143 21.5017 144.843 21.2015 144.843 20.8297C144.843 20.4578 145.143 20.1577 145.515 20.1577H150.21C150.581 20.1577 150.882 20.4578 150.882 20.8297C150.882 21.2015 150.581 21.5017 150.21 21.5017ZM140.817 21.5017H136.122C135.75 21.5017 135.45 21.2015 135.45 20.8297C135.45 20.4578 135.75 20.1577 136.122 20.1577H140.817C141.189 20.1577 141.489 20.4578 141.489 20.8297C141.489 21.2015 141.189 21.5017 140.817 21.5017ZM131.425 21.5017H126.73C126.358 21.5017 126.058 21.2015 126.058 20.8297C126.058 20.4578 126.358 20.1577 126.73 20.1577H131.425C131.797 20.1577 132.097 20.4578 132.097 20.8297C132.097 21.2015 131.797 21.5017 131.425 21.5017ZM122.033 21.5017H117.335C116.963 21.5017 116.663 21.2015 116.663 20.8297C116.663 20.4578 116.963 20.1577 117.335 20.1577H122.033C122.404 20.1577 122.705 20.4578 122.705 20.8297C122.705 21.2015 122.404 21.5017 122.033 21.5017ZM112.64 21.5017H107.943C107.571 21.5017 107.271 21.2015 107.271 20.8297C107.271 20.4578 107.571 20.1577 107.943 20.1577H112.64C113.012 20.1577 113.312 20.4578 113.312 20.8297C113.312 21.2015 113.012 21.5017 112.64 21.5017ZM103.248 21.5017H98.5507C98.1788 21.5017 97.8787 21.2015 97.8787 20.8297C97.8787 20.4578 98.1788 20.1577 98.5507 20.1577H103.248C103.62 20.1577 103.92 20.4578 103.92 20.8297C103.92 21.2015 103.62 21.5017 103.248 21.5017Z" fill="#A1C6FF"/>
<path d="M206.452 186.877H99.6493C95.3059 186.877 91.7734 183.344 91.7734 179.001V42.5266C91.7734 38.1832 95.3059 34.6508 99.6493 34.6508H182.682C185.159 34.6508 187.522 35.838 189.001 37.8271L212.769 69.7852C213.773 71.1359 214.326 72.8047 214.326 74.4847V179.001C214.326 183.344 210.794 186.877 206.45 186.877H206.452ZM99.6493 35.9948C96.0474 35.9948 93.1174 38.9247 93.1174 42.5266V179.001C93.1174 182.603 96.0474 185.533 99.6493 185.533H206.452C210.054 185.533 212.984 182.603 212.984 179.001V74.4847C212.984 73.0892 212.525 71.7048 211.694 70.5871L187.925 38.6312C186.698 36.9826 184.74 35.997 182.684 35.997H99.6515L99.6493 35.9948Z" fill="#A1C6FF"/>
<path d="M213.656 74.4843V139.462H92.4453V42.5262C92.4453 38.548 95.6709 35.3224 99.6491 35.3224H182.681C184.96 35.3224 187.101 36.3976 188.461 38.2277L212.232 70.1857C213.154 71.4289 213.654 72.9342 213.654 74.4843H213.656Z" fill="#E7F1FF"/>
<path d="M148.6 66.216L126.182 103.641C125.72 104.442 125.475 105.349 125.473 106.273C125.47 107.198 125.71 108.107 126.167 108.91C126.625 109.713 127.285 110.382 128.082 110.85C128.878 111.319 129.784 111.571 130.708 111.581H175.544C176.468 111.571 177.374 111.319 178.17 110.85C178.967 110.382 179.627 109.713 180.085 108.91C180.542 108.107 180.782 107.198 180.779 106.273C180.777 105.349 180.532 104.442 180.07 103.641L157.652 66.216C157.18 65.4381 156.516 64.795 155.723 64.3487C154.93 63.9023 154.036 63.6678 153.126 63.6678C152.216 63.6678 151.322 63.9023 150.529 64.3487C149.736 64.795 149.072 65.4381 148.6 66.216Z" stroke="#A1C6FF" stroke-width="2.98667" stroke-linecap="round" stroke-linejoin="round"/>
<path d="M153.125 79.8204V92.96" stroke="#A1C6FF" stroke-width="2.98667" stroke-linecap="round" stroke-linejoin="round"/>
<path d="M153.125 100.994H153.15" stroke="#A1C6FF" stroke-width="2.98667" stroke-linecap="round" stroke-linejoin="round"/>
<g opacity="0.5">
<path d="M213.654 139.462V179C213.654 182.978 210.431 186.204 206.45 186.204H99.6491C95.6709 186.204 92.4453 182.978 92.4453 179V139.462H213.656H213.654Z" fill="#A1C6FF"/>
</g>
<path d="M206.454 186.876H99.6532C95.3098 186.876 91.7773 183.344 91.7773 179V138.79H214.332V179C214.332 183.344 210.8 186.876 206.456 186.876H206.454ZM93.1191 140.134V179C93.1191 182.602 96.049 185.532 99.6509 185.532H206.452C210.054 185.532 212.984 182.602 212.984 179V140.134H93.1191Z" fill="#A1C6FF"/>
<path d="M186.301 37.2915V71.2634C186.301 71.6218 186.59 71.9129 186.948 71.9152L212.348 72.0899C212.885 72.0944 213.196 71.4806 212.874 71.0505L187.475 36.9017C187.1 36.3977 186.301 36.6621 186.301 37.2915Z" fill="#A1C6FF"/>
<path d="M118.852 40.0265C118.852 49.0223 113.633 56.7973 106.057 60.4866C103.053 61.9561 99.6732 62.7759 96.1027 62.7759C83.5408 62.7759 73.3555 52.5906 73.3555 40.0265C73.3555 34.4892 75.3356 29.4089 78.6284 25.4665C82.7971 20.4623 89.078 17.2815 96.1027 17.2815C108.669 17.2815 118.852 27.4668 118.852 40.0287V40.0265Z" fill="#FFFFFE"/>
<path d="M96.1014 62.8879C83.4969 62.8879 73.2422 52.6332 73.2422 40.0265C73.2422 34.6819 75.1238 29.4873 78.5398 25.3926C82.8966 20.1644 89.2963 17.1673 96.1014 17.1673C108.708 17.1673 118.963 27.422 118.963 40.0265C118.963 44.3945 117.726 48.6415 115.388 52.3062C113.112 55.8745 109.9 58.7372 106.103 60.5875C102.98 62.1151 99.6137 62.8879 96.0992 62.8879H96.1014ZM96.1014 17.3913C89.3635 17.3913 83.0265 20.3593 78.7123 25.5359C75.3299 29.5881 73.4662 34.7334 73.4662 40.0243C73.4662 52.5078 83.6201 62.6617 96.1014 62.6617C99.5824 62.6617 102.913 61.8956 106.007 60.3836C113.86 56.5577 118.739 48.758 118.739 40.0243C118.739 27.543 108.583 17.3891 96.1014 17.3891V17.3913Z" fill="#A1C6FF"/>
<g opacity="0.25">
<path d="M118.852 40.0263C118.852 49.0221 113.633 56.7971 106.057 60.4864C103.053 61.9559 99.6732 62.7757 96.1027 62.7757C83.5408 62.7757 73.3555 52.5904 73.3555 40.0263C73.3555 34.489 75.3356 29.4087 78.6284 25.4663C82.7971 20.4621 89.078 17.2813 96.1027 17.2813C108.669 17.2813 118.852 27.4666 118.852 40.0285V40.0263Z" fill="#A1C6FF"/>
</g>
<path d="M96.1028 63.4479C83.1892 63.4479 72.6836 52.9401 72.6836 40.0265C72.6836 34.5519 74.6122 29.2275 78.1111 25.0342C82.5732 19.6783 89.1297 16.6073 96.1006 16.6073C109.014 16.6073 119.522 27.1129 119.522 40.0265C119.522 44.502 118.256 48.8521 115.86 52.6086C113.528 56.2643 110.239 59.1964 106.349 61.0915C103.15 62.655 99.7002 63.4479 96.1006 63.4479H96.1028ZM96.1028 17.9513C89.5329 17.9513 83.3505 20.8476 79.1438 25.8943C75.8442 29.8457 74.0276 34.8655 74.0276 40.0243C74.0276 52.1987 83.9306 62.1017 96.1028 62.1017C99.4964 62.1017 102.747 61.3535 105.762 59.8796C113.422 56.15 118.18 48.5407 118.18 40.0243C118.18 27.8521 108.277 17.9491 96.1028 17.9491V17.9513Z" fill="#A1C6FF"/>
<g opacity="0.75">
<path d="M104.665 42.2688C104.665 45.584 103.922 48.1399 102.432 49.9364C100.943 51.7351 98.846 52.6333 96.1378 52.6333C93.4296 52.6333 91.2949 51.7284 89.8008 49.9207C88.3068 48.113 87.5586 45.5616 87.5586 42.2688V37.7866C87.5586 34.4714 88.3023 31.9156 89.7919 30.1191C91.2815 28.3226 93.3848 27.4221 96.1042 27.4221C98.8235 27.4221 100.929 28.3271 102.423 30.1348C103.917 31.9447 104.665 34.5005 104.665 37.8023V42.2688ZM98.9848 37.0608C98.9848 35.298 98.7541 33.9786 98.2949 33.1095C97.8335 32.2381 97.1032 31.8036 96.1042 31.8036C95.1051 31.8036 94.4152 32.209 93.9717 33.0176C93.5282 33.8263 93.2885 35.0516 93.2549 36.6912V42.961C93.2549 44.7933 93.4856 46.1328 93.9448 46.9796C94.4063 47.8285 95.1365 48.2519 96.1355 48.2519C97.1346 48.2519 97.8155 47.8397 98.277 47.0132C98.7384 46.1866 98.9736 44.8919 98.9848 43.129V37.0608Z" fill="#A1C6FF"/>
</g>
<path d="M187.504 165.032H97.3594V166.376H187.504V165.032Z" fill="#A1C6FF"/>
<path d="M142.431 172.688H123.785V174.032H142.431V172.688Z" fill="#A1C6FF"/>
<g opacity="0.5">
<path d="M69.0304 109.578C71.7977 109.578 74.0413 107.335 74.0413 104.567C74.0413 101.8 71.7977 99.5566 69.0304 99.5566C66.2631 99.5566 64.0195 101.8 64.0195 104.567C64.0195 107.335 66.2631 109.578 69.0304 109.578Z" fill="#A1C6FF"/>
<path d="M64.5921 78.0304C66.0002 78.0304 67.1412 76.8893 67.1412 75.4813C67.1412 74.0736 66.0002 72.9321 64.5921 72.9321C63.1845 72.9321 62.043 74.0736 62.043 75.4813C62.043 76.8893 63.1845 78.0304 64.5921 78.0304Z" fill="#A1C6FF"/>
<path d="M214.663 38.6331C215.578 38.6331 216.319 37.8921 216.319 36.9777C216.319 36.0634 215.578 35.3224 214.663 35.3224C213.749 35.3224 213.008 36.0634 213.008 36.9777C213.008 37.8921 213.749 38.6331 214.663 38.6331Z" fill="#A1C6FF"/>
<path d="M238.547 42.7437C240.139 42.7437 241.43 41.453 241.43 39.8608C241.43 38.2687 240.139 36.978 238.547 36.978C236.955 36.978 235.664 38.2687 235.664 39.8608C235.664 41.453 236.955 42.7437 238.547 42.7437Z" fill="#A1C6FF"/>
<path d="M243.273 123.115C245.884 123.115 248 120.999 248 118.388C248 115.778 245.884 113.662 243.273 113.662C240.663 113.662 238.547 115.778 238.547 118.388C238.547 120.999 240.663 123.115 243.273 123.115Z" fill="#A1C6FF"/>
<path d="M238.547 184.932C240.139 184.932 241.43 183.641 241.43 182.049C241.43 180.457 240.139 179.166 238.547 179.166C236.955 179.166 235.664 180.457 235.664 182.049C235.664 183.641 236.955 184.932 238.547 184.932Z" fill="#A1C6FF"/>
<path d="M69.5662 151.2C70.6772 151.2 71.5777 150.299 71.5777 149.188C71.5777 148.077 70.6772 147.177 69.5662 147.177C68.4552 147.177 67.5547 148.077 67.5547 149.188C67.5547 150.299 68.4552 151.2 69.5662 151.2Z" fill="#A1C6FF"/>
</g>
</g>
<path d="M16.8223 246H12.5576L11.4512 242.767H5.52148L4.41504 246H0.257812L6.16602 230.005H10.9141L16.8223 246ZM10.4521 239.834L8.48633 234.098L6.52051 239.834H10.4521ZM30.9268 246H27.0596V244.668C26.3434 245.212 25.6882 245.628 25.0938 245.914C24.4993 246.193 23.7904 246.333 22.9668 246.333C21.6348 246.333 20.6071 245.95 19.8838 245.184C19.1676 244.417 18.8096 243.286 18.8096 241.789V233.937H22.6982V239.92C22.6982 240.529 22.7161 241.037 22.752 241.445C22.7949 241.846 22.888 242.179 23.0312 242.444C23.1673 242.709 23.3714 242.903 23.6436 243.024C23.9229 243.146 24.3096 243.207 24.8037 243.207C25.1331 243.207 25.4984 243.146 25.8994 243.024C26.3005 242.903 26.6872 242.724 27.0596 242.487V233.937H30.9268V246ZM40.874 246.322C39.8213 246.322 38.8581 246.197 37.9844 245.946C37.1178 245.696 36.3623 245.309 35.7178 244.786C35.0804 244.263 34.5863 243.604 34.2354 242.81C33.8844 242.015 33.709 241.084 33.709 240.017C33.709 238.892 33.8952 237.922 34.2676 237.105C34.6471 236.289 35.1735 235.612 35.8467 235.075C36.4984 234.567 37.2503 234.194 38.1025 233.958C38.9548 233.722 39.8392 233.604 40.7559 233.604C41.5794 233.604 42.3385 233.693 43.0332 233.872C43.7279 234.051 44.376 234.284 44.9775 234.57V237.868H44.4297C44.2793 237.739 44.0967 237.589 43.8818 237.417C43.6742 237.245 43.4163 237.077 43.1084 236.912C42.8148 236.755 42.4925 236.626 42.1416 236.525C41.7907 236.418 41.3825 236.364 40.917 236.364C39.8857 236.364 39.0908 236.694 38.5322 237.353C37.9808 238.004 37.7051 238.892 37.7051 240.017C37.7051 241.177 37.988 242.058 38.5537 242.659C39.1266 243.261 39.9359 243.562 40.9814 243.562C41.4684 243.562 41.9053 243.508 42.292 243.4C42.6859 243.286 43.0117 243.153 43.2695 243.003C43.513 242.86 43.7279 242.709 43.9141 242.552C44.1003 242.394 44.2721 242.24 44.4297 242.09H44.9775V245.388C44.3688 245.674 43.7314 245.9 43.0654 246.064C42.4066 246.236 41.6761 246.322 40.874 246.322ZM59.5654 246H55.6982V244.668C54.9821 245.212 54.3268 245.628 53.7324 245.914C53.138 246.193 52.429 246.333 51.6055 246.333C50.2734 246.333 49.2458 245.95 48.5225 245.184C47.8063 244.417 47.4482 243.286 47.4482 241.789V233.937H51.3369V239.92C51.3369 240.529 51.3548 241.037 51.3906 241.445C51.4336 241.846 51.5267 242.179 51.6699 242.444C51.806 242.709 52.0101 242.903 52.2822 243.024C52.5615 243.146 52.9482 243.207 53.4424 243.207C53.7718 243.207 54.137 243.146 54.5381 243.024C54.9391 242.903 55.3258 242.724 55.6982 242.487V233.937H59.5654V246ZM75.3457 246H71.457V240.017C71.457 239.53 71.432 239.046 71.3818 238.566C71.3317 238.079 71.2458 237.721 71.124 237.492C70.9808 237.227 70.7695 237.034 70.4902 236.912C70.2181 236.79 69.835 236.729 69.3408 236.729C68.9899 236.729 68.6318 236.787 68.2666 236.901C67.9085 237.016 67.5182 237.199 67.0957 237.449V246H63.2285V233.937H67.0957V235.269C67.7832 234.731 68.4421 234.32 69.0723 234.033C69.7096 233.747 70.415 233.604 71.1885 233.604C72.4919 233.604 73.5088 233.983 74.2393 234.742C74.9769 235.501 75.3457 236.636 75.3457 238.147V246ZM90.793 240.683H81.9414C81.9987 241.628 82.3568 242.351 83.0156 242.853C83.6816 243.354 84.6592 243.604 85.9482 243.604C86.7646 243.604 87.556 243.458 88.3223 243.164C89.0885 242.87 89.6937 242.555 90.1377 242.219H90.5674V245.323C89.6937 245.674 88.8701 245.928 88.0967 246.086C87.3232 246.243 86.4674 246.322 85.5293 246.322C83.1087 246.322 81.2539 245.778 79.9648 244.689C78.6758 243.601 78.0312 242.05 78.0312 240.038C78.0312 238.047 78.64 236.472 79.8574 235.312C81.082 234.144 82.7578 233.561 84.8848 233.561C86.847 233.561 88.3223 234.058 89.3105 235.054C90.2988 236.042 90.793 237.467 90.793 239.329V240.683ZM86.9473 238.416C86.9258 237.607 86.7253 236.998 86.3457 236.59C85.9661 236.182 85.3753 235.978 84.5732 235.978C83.8285 235.978 83.2161 236.171 82.7363 236.558C82.2565 236.944 81.988 237.564 81.9307 238.416H86.9473ZM112.771 246H108.904V244.743C108.238 245.287 107.615 245.688 107.035 245.946C106.455 246.204 105.785 246.333 105.026 246.333C103.558 246.333 102.384 245.767 101.503 244.636C100.622 243.504 100.182 241.979 100.182 240.06C100.182 239.035 100.328 238.13 100.622 237.342C100.923 236.547 101.331 235.867 101.847 235.301C102.334 234.764 102.924 234.348 103.619 234.055C104.314 233.754 105.008 233.604 105.703 233.604C106.426 233.604 107.017 233.682 107.476 233.84C107.941 233.99 108.417 234.184 108.904 234.42V229.285H112.771V246ZM108.904 242.67V236.751C108.632 236.636 108.346 236.554 108.045 236.504C107.744 236.454 107.468 236.429 107.218 236.429C106.201 236.429 105.438 236.747 104.93 237.385C104.421 238.015 104.167 238.892 104.167 240.017C104.167 241.198 104.371 242.058 104.779 242.595C105.188 243.125 105.843 243.39 106.745 243.39C107.096 243.39 107.468 243.325 107.862 243.196C108.256 243.06 108.604 242.885 108.904 242.67ZM128.756 239.974C128.756 241.957 128.176 243.522 127.016 244.668C125.863 245.807 124.241 246.376 122.149 246.376C120.058 246.376 118.433 245.807 117.272 244.668C116.119 243.522 115.543 241.957 115.543 239.974C115.543 237.976 116.123 236.407 117.283 235.269C118.451 234.13 120.073 233.561 122.149 233.561C124.255 233.561 125.881 234.133 127.026 235.279C128.179 236.425 128.756 237.99 128.756 239.974ZM123.997 242.906C124.248 242.598 124.434 242.229 124.556 241.8C124.685 241.363 124.749 240.761 124.749 239.995C124.749 239.286 124.685 238.692 124.556 238.212C124.427 237.732 124.248 237.349 124.019 237.062C123.789 236.769 123.514 236.561 123.191 236.439C122.869 236.318 122.522 236.257 122.149 236.257C121.777 236.257 121.444 236.307 121.15 236.407C120.864 236.507 120.588 236.708 120.323 237.009C120.087 237.288 119.897 237.671 119.754 238.158C119.618 238.645 119.55 239.257 119.55 239.995C119.55 240.654 119.611 241.227 119.732 241.714C119.854 242.194 120.033 242.58 120.27 242.874C120.499 243.153 120.771 243.357 121.086 243.486C121.408 243.615 121.773 243.68 122.182 243.68C122.533 243.68 122.866 243.622 123.181 243.508C123.503 243.386 123.775 243.186 123.997 242.906ZM143.645 246H139.756V240.017C139.756 239.53 139.731 239.046 139.681 238.566C139.631 238.079 139.545 237.721 139.423 237.492C139.28 237.227 139.068 237.034 138.789 236.912C138.517 236.79 138.134 236.729 137.64 236.729C137.289 236.729 136.931 236.787 136.565 236.901C136.207 237.016 135.817 237.199 135.395 237.449V246H131.527V233.937H135.395V235.269C136.082 234.731 136.741 234.32 137.371 234.033C138.008 233.747 138.714 233.604 139.487 233.604C140.791 233.604 141.808 233.983 142.538 234.742C143.276 235.501 143.645 236.636 143.645 238.147V246ZM159.328 246H155.439V240.017C155.439 239.53 155.414 239.046 155.364 238.566C155.314 238.079 155.228 237.721 155.106 237.492C154.963 237.227 154.752 237.034 154.473 236.912C154.201 236.79 153.817 236.729 153.323 236.729C152.972 236.729 152.614 236.787 152.249 236.901C151.891 237.016 151.501 237.199 151.078 237.449V246H147.211V233.937H151.078V235.269C151.766 234.731 152.424 234.32 153.055 234.033C153.692 233.747 154.397 233.604 155.171 233.604C156.474 233.604 157.491 233.983 158.222 234.742C158.959 235.501 159.328 236.636 159.328 238.147V246ZM174.775 240.683H165.924C165.981 241.628 166.339 242.351 166.998 242.853C167.664 243.354 168.642 243.604 169.931 243.604C170.747 243.604 171.538 243.458 172.305 243.164C173.071 242.87 173.676 242.555 174.12 242.219H174.55V245.323C173.676 245.674 172.853 245.928 172.079 246.086C171.306 246.243 170.45 246.322 169.512 246.322C167.091 246.322 165.236 245.778 163.947 244.689C162.658 243.601 162.014 242.05 162.014 240.038C162.014 238.047 162.622 236.472 163.84 235.312C165.064 234.144 166.74 233.561 168.867 233.561C170.829 233.561 172.305 234.058 173.293 235.054C174.281 236.042 174.775 237.467 174.775 239.329V240.683ZM170.93 238.416C170.908 237.607 170.708 236.998 170.328 236.59C169.949 236.182 169.358 235.978 168.556 235.978C167.811 235.978 167.199 236.171 166.719 236.558C166.239 236.944 165.97 237.564 165.913 238.416H170.93ZM172.487 227.996V228.211L168.706 232.218H166.063L168.717 227.996H172.487ZM189.385 240.683H180.533C180.59 241.628 180.949 242.351 181.607 242.853C182.273 243.354 183.251 243.604 184.54 243.604C185.356 243.604 186.148 243.458 186.914 243.164C187.68 242.87 188.285 242.555 188.729 242.219H189.159V245.323C188.285 245.674 187.462 245.928 186.688 246.086C185.915 246.243 185.059 246.322 184.121 246.322C181.701 246.322 179.846 245.778 178.557 244.689C177.268 243.601 176.623 242.05 176.623 240.038C176.623 238.047 177.232 236.472 178.449 235.312C179.674 234.144 181.35 233.561 183.477 233.561C185.439 233.561 186.914 234.058 187.902 235.054C188.891 236.042 189.385 237.467 189.385 239.329V240.683ZM185.539 238.416C185.518 237.607 185.317 236.998 184.938 236.59C184.558 236.182 183.967 235.978 183.165 235.978C182.42 235.978 181.808 236.171 181.328 236.558C180.848 236.944 180.58 237.564 180.522 238.416H185.539ZM207.346 245.893C206.93 246 206.49 246.082 206.024 246.14C205.559 246.204 204.99 246.236 204.316 246.236C202.812 246.236 201.692 245.932 200.954 245.323C200.224 244.715 199.858 243.673 199.858 242.197V236.558H198.269V233.937H199.858V230.488H203.726V233.937H207.346V236.558H203.726V240.833C203.726 241.256 203.729 241.624 203.736 241.939C203.743 242.255 203.801 242.537 203.908 242.788C204.008 243.039 204.184 243.239 204.435 243.39C204.692 243.533 205.065 243.604 205.552 243.604C205.752 243.604 206.014 243.562 206.336 243.476C206.665 243.39 206.895 243.311 207.023 243.239H207.346V245.893ZM218.41 237.621H218.066C217.902 237.564 217.637 237.521 217.271 237.492C216.906 237.464 216.602 237.449 216.358 237.449C215.807 237.449 215.32 237.485 214.897 237.557C214.475 237.628 214.02 237.75 213.533 237.922V246H209.666V233.937H213.533V235.709C214.385 234.979 215.127 234.495 215.757 234.259C216.387 234.015 216.967 233.894 217.497 233.894C217.633 233.894 217.787 233.897 217.959 233.904C218.131 233.911 218.281 233.922 218.41 233.937V237.621ZM232.934 239.974C232.934 241.957 232.354 243.522 231.193 244.668C230.04 245.807 228.418 246.376 226.327 246.376C224.236 246.376 222.61 245.807 221.45 244.668C220.297 243.522 219.721 241.957 219.721 239.974C219.721 237.976 220.301 236.407 221.461 235.269C222.628 234.13 224.25 233.561 226.327 233.561C228.433 233.561 230.058 234.133 231.204 235.279C232.357 236.425 232.934 237.99 232.934 239.974ZM228.175 242.906C228.425 242.598 228.612 242.229 228.733 241.8C228.862 241.363 228.927 240.761 228.927 239.995C228.927 239.286 228.862 238.692 228.733 238.212C228.604 237.732 228.425 237.349 228.196 237.062C227.967 236.769 227.691 236.561 227.369 236.439C227.047 236.318 226.7 236.257 226.327 236.257C225.955 236.257 225.622 236.307 225.328 236.407C225.042 236.507 224.766 236.708 224.501 237.009C224.265 237.288 224.075 237.671 223.932 238.158C223.796 238.645 223.728 239.257 223.728 239.995C223.728 240.654 223.788 241.227 223.91 241.714C224.032 242.194 224.211 242.58 224.447 242.874C224.676 243.153 224.949 243.357 225.264 243.486C225.586 243.615 225.951 243.68 226.359 243.68C226.71 243.68 227.043 243.622 227.358 243.508C227.681 243.386 227.953 243.186 228.175 242.906ZM247.726 246H243.858V244.668C243.142 245.212 242.487 245.628 241.893 245.914C241.298 246.193 240.589 246.333 239.766 246.333C238.434 246.333 237.406 245.95 236.683 245.184C235.966 244.417 235.608 243.286 235.608 241.789V233.937H239.497V239.92C239.497 240.529 239.515 241.037 239.551 241.445C239.594 241.846 239.687 242.179 239.83 242.444C239.966 242.709 240.17 242.903 240.442 243.024C240.722 243.146 241.108 243.207 241.603 243.207C241.932 243.207 242.297 243.146 242.698 243.024C243.099 242.903 243.486 242.724 243.858 242.487V233.937H247.726V246ZM263.538 233.937L258.887 246H254.504L249.885 233.937H253.978L256.771 242.229L259.531 233.937H263.538ZM277.578 240.683H268.727C268.784 241.628 269.142 242.351 269.801 242.853C270.467 243.354 271.444 243.604 272.733 243.604C273.55 243.604 274.341 243.458 275.107 243.164C275.874 242.87 276.479 242.555 276.923 242.219H277.353V245.323C276.479 245.674 275.655 245.928 274.882 246.086C274.108 246.243 273.253 246.322 272.314 246.322C269.894 246.322 268.039 245.778 266.75 244.689C265.461 243.601 264.816 242.05 264.816 240.038C264.816 238.047 265.425 236.472 266.643 235.312C267.867 234.144 269.543 233.561 271.67 233.561C273.632 233.561 275.107 234.058 276.096 235.054C277.084 236.042 277.578 237.467 277.578 239.329V240.683ZM273.732 238.416C273.711 237.607 273.51 236.998 273.131 236.59C272.751 236.182 272.16 235.978 271.358 235.978C270.614 235.978 270.001 236.171 269.521 236.558C269.042 236.944 268.773 237.564 268.716 238.416H273.732ZM275.29 227.996V228.211L271.509 232.218H268.866L271.52 227.996H275.29ZM292.188 240.683H283.336C283.393 241.628 283.751 242.351 284.41 242.853C285.076 243.354 286.054 243.604 287.343 243.604C288.159 243.604 288.951 243.458 289.717 243.164C290.483 242.87 291.088 242.555 291.532 242.219H291.962V245.323C291.088 245.674 290.265 245.928 289.491 246.086C288.718 246.243 287.862 246.322 286.924 246.322C284.503 246.322 282.648 245.778 281.359 244.689C280.07 243.601 279.426 242.05 279.426 240.038C279.426 238.047 280.035 236.472 281.252 235.312C282.477 234.144 284.152 233.561 286.279 233.561C288.242 233.561 289.717 234.058 290.705 235.054C291.693 236.042 292.188 237.467 292.188 239.329V240.683ZM288.342 238.416C288.32 237.607 288.12 236.998 287.74 236.59C287.361 236.182 286.77 235.978 285.968 235.978C285.223 235.978 284.611 236.171 284.131 236.558C283.651 236.944 283.382 237.564 283.325 238.416H288.342Z" fill="#1370FF"/>
</svg>
